<svg xmlns="http://www.w3.org/2000/svg" width="19" height="24" viewBox="0 0 19 24"><path fill="#a90923" d="M16.22 14.07V2.06C16.22.91 15.3 0 14.15 0c-1.16 0-2.08.91-2.08 2.06V6.4a1.6 1.6 0 0 0-.81-.63l-.97-.31a1.45 1.45 0 0 0-1.13.1c-.45.24-.76.65-.89 1.2-.19-.18-.4-.34-.63-.42-.35-.1-.69-.23-1.03-.34a1.37 1.37 0 0 0-1.1.11c-.42.23-.74.68-.87 1.2-.05.29-.13.57-.18.86a2.18 2.18 0 0 0-.5-.31l-.74-.24a1.26 1.26 0 0 0-1.05.11c-.42.23-.73.65-.84 1.17a15.19 15.19 0 0 0-.23 4.89c.08.67.42 1.27.94 1.61.08.06.16.11.24.13-.03.03-.03.08-.03.13-.02.08-.08 8.07 7.51 8.23h.32c7.98 0 8.69-6.58 8.74-6.97.11-.81-.71-1.73-2.6-2.85zm-4.15-4.83v.73a.35.35 0 0 0 .69 0V2.06c0-.78.63-1.41 1.41-1.41.79 0 1.42.63 1.42 1.41v11.62a39.7 39.7 0 0 0-2.49-1.28 3.4 3.4 0 0 0-1.05-.34c-.11-.94-.08-1.88.02-2.82zm-3.15-2.3c.08-.36.29-.65.58-.8a.66.66 0 0 1 .37-.11c.08 0 .16 0 .23.03l.98.31c.47.16.76.71.63 1.2a13.78 13.78 0 0 0-.32 4.44c-.47.03-.89.18-1.23.55l-.08.08c-.47.54-.63 1.25-.47 1.9a.58.58 0 0 1-.21-.1 1.82 1.82 0 0 1-.77-1.31c-.18-1.56-.21-3.1 0-4.64l.06-.21c.02-.11.02-.21.05-.32.05-.34.1-.68.18-1.02zm-3.65.5c.08-.34.29-.63.55-.78a.66.66 0 0 1 .37-.11c.05 0 .13 0 .21.03.34.1.68.23 1.03.34.39.13.63.55.63.96l-.08.5a15.47 15.47 0 0 0-.19 4.8c.11.84-.36 1.62-1.1 1.83-.31.08-.66.03-.95-.18a1.88 1.88 0 0 1-.76-1.33 17.77 17.77 0 0 1-.1-3.34l.08-.45c.05-.21.05-.44.02-.62.06-.55.16-1.1.29-1.65zm-3.54 6.27c-.19-1.57-.11-3.14.21-4.68.08-.34.26-.62.52-.75a.8.8 0 0 1 .34-.08c.06 0 .13.02.19.05l.73.24c.32.1.53.41.58.73-.03.21-.05.39-.05.6-.24 1.17-.29 2.4-.13 3.63a1.4 1.4 0 0 1-.95 1.56c-.26.08-.52 0-.79-.15-.34-.24-.6-.66-.65-1.15zm16.44 3.16v.02c-.03.26-.53 6.37-8.09 6.37h-.29c-6.93-.13-6.88-7.26-6.88-7.57h.05c.13 0 .26-.03.4-.05a2 2 0 0 0 1.26-1.1c.18.34.44.63.76.84.31.21.68.31 1.02.31.16 0 .32-.03.45-.03a2.16 2.16 0 0 0 1.49-1.4c.19.31.42.54.71.73.27.18.58.28.87.31.08.1.16.21.26.29l3.1 3.03c.13.13.34.13.47 0 .14-.14.14-.34 0-.47l-3.09-3.03a1.46 1.46 0 0 1-.08-2.04l.08-.08c.44-.52 1.41-.36 2.18 0 4.8 2.33 5.41 3.42 5.33 3.87z"/></svg>