<?xml version="1.0" encoding="utf-8"?>
<!-- Generator: Adobe Illustrator 21.0.2, SVG Export Plug-In . SVG Version: 6.00 Build 0)  -->
<svg version="1.1" id="Layer_1" xmlns="http://www.w3.org/2000/svg" xmlns:xlink="http://www.w3.org/1999/xlink" x="0px" y="0px"
	 viewBox="0 0 59 52.3" style="enable-background:new 0 0 59 52.3;" xml:space="preserve">
<style type="text/css">
	.st0{fill:none;stroke:#CA0728;stroke-width:2.5;stroke-linecap:round;stroke-linejoin:round;}
</style>
<title>envelope copy 2</title>
<desc>Created with Sketch.</desc>
<g id="Symbols">
	<g id="envelope-copy-2">
		<g id="Page-1" transform="translate(1.000000, 1.000000)">
			<path id="Stroke-1" class="st0" d="M53.3,42H3.6c-1.9,0-3.4-1.5-3.4-3.4V3.7c0-1.9,1.5-3.4,3.4-3.4h49.6c1.9,0,3.4,1.5,3.4,3.4
				v34.9C56.7,40.5,55.2,42,53.3,42z"/>
			<path id="Stroke-3" class="st0" d="M0.4,2.7l19.5,19.6l5.9,5.9c1.3,1.3,3.5,1.3,4.8,0l5.9-5.9l19.9-20"/>
			<path id="Stroke-5" class="st0" d="M19.8,22.2L1.2,41"/>
			<path id="Stroke-7" class="st0" d="M55.5,41.2l-18.9-19"/>
			<path id="Stroke-9" class="st0" d="M10.8,50.1h35.6"/>
		</g>
	</g>
</g>
</svg>
