<svg xmlns="http://www.w3.org/2000/svg" width="60" height="61.28" viewBox="0 0 60 61.28"><path fill="#c8102e" d="M54.05 8.54h-13.7V3.21c0-1.8-1.42-3.21-3.22-3.21H22.07a3.18 3.18 0 0 0-3.22 3.21v5.33H5.15A5.17 5.17 0 0 0 0 13.68v33.41a5.16 5.16 0 0 0 5.15 5.14h48.9a5.16 5.16 0 0 0 5.15-5.14V13.68a5.17 5.17 0 0 0-5.15-5.14zM21.43 3.21a.6.6 0 0 1 .64-.64h15.12c.39 0 .65.26.65.64v5.33H21.43zm-16.28 7.9h48.9a2.58 2.58 0 0 1 2.58 2.57v10.28H2.57V13.68a2.58 2.58 0 0 1 2.58-2.57zm35.58 15.42h4.83v3.09c0 .38-.26.64-.65.64h-3.53c-.39 0-.65-.26-.65-.64zm-22.2 0v3.09a.6.6 0 0 1-.64.64h-3.54c-.39 0-.64-.26-.64-.64v-3.09zm35.52 23.13H5.15a2.58 2.58 0 0 1-2.58-2.57V26.53h8.56v3.09c0 1.8 1.42 3.21 3.22 3.21h3.54c1.8 0 3.22-1.41 3.22-3.21v-3.09h17.05v3.09c0 1.8 1.41 3.21 3.22 3.21h3.53a3.18 3.18 0 0 0 3.22-3.21v-3.09h8.5v20.56a2.58 2.58 0 0 1-2.58 2.57z"/><path fill="none" stroke="#c8102e" stroke-linecap="round" stroke-linejoin="round" stroke-miterlimit="50" stroke-width="2.56" d="M11.32 59.28h36.7"/></svg>