<svg xmlns="http://www.w3.org/2000/svg" width="61.92" height="66.6" viewBox="0 0 61.92 66.6"><path fill="none" stroke="#c8102e" stroke-miterlimit="50" stroke-width="2.56" d="M10.64 26.4c0-1.7 1.38-3.08 3.08-3.08h43.85c1.7 0 3.07 1.38 3.07 3.07v26.86c0 1.7-1.37 3.07-3.07 3.07H13.72a3.07 3.07 0 0 1-3.08-3.07z"/><path fill="none" stroke="#c8102e" stroke-miterlimit="50" stroke-width="2.56" d="M2.31 27.22a3.07 3.07 0 0 1 1.49-4.08L43.54 4.6a3.07 3.07 0 0 1 4.09 1.49l8.03 17.23H13.72a3.07 3.07 0 0 0-3.08 3.07v18.7z"/><path fill="none" stroke="#c8102e" stroke-linecap="round" stroke-linejoin="round" stroke-miterlimit="50" stroke-width="2.56" d="M16.84 30.61h7.42M29.84 30.61h7.42M33.64 48.32a4 4 0 1 1 8 0 4 4 0 0 1-8 0zM45.64 48.32a4 4 0 1 1 8 0 4 4 0 0 1-8 0zM16.85 38.61h30.5M16.96 64.61h36.7"/></svg>